<svg width="928" height="246" viewBox="0 0 928 246" fill="none" xmlns="http://www.w3.org/2000/svg">
<path d="M300.587 196V183.037L363.386 102.378V101.226H302.604V85.3818H385.279V98.921L324.209 179.004V180.156H387.296V196H300.587ZM456.684 198.305C446.026 198.305 436.831 195.952 429.102 191.247C421.42 186.494 415.49 179.868 411.313 171.37C407.184 162.824 405.12 152.886 405.12 141.555C405.12 130.224 407.184 120.238 411.313 111.596C415.49 102.906 421.3 96.1364 428.741 91.2872C436.231 86.3901 444.969 83.9415 454.956 83.9415C460.717 83.9415 466.406 84.9017 472.024 86.8221C477.641 88.7426 482.754 91.8633 487.363 96.1844C491.972 100.457 495.645 106.123 498.382 113.18C501.119 120.238 502.487 128.928 502.487 139.251V146.452H417.219V131.761H485.203C485.203 125.519 483.955 119.95 481.458 115.053C479.009 110.156 475.505 106.291 470.943 103.458C466.43 100.625 461.101 99.2091 454.956 99.2091C448.186 99.2091 442.329 100.889 437.384 104.25C432.486 107.563 428.717 111.884 426.077 117.213C423.436 122.543 422.116 128.256 422.116 134.353V144.148C422.116 152.502 423.556 159.583 426.437 165.393C429.366 171.154 433.423 175.547 438.608 178.572C443.793 181.549 449.818 183.037 456.684 183.037C461.149 183.037 465.182 182.413 468.783 181.164C472.432 179.868 475.577 177.948 478.217 175.403C480.858 172.811 482.898 169.594 484.339 165.753L500.759 170.362C499.03 175.931 496.125 180.828 492.044 185.053C487.963 189.23 482.922 192.495 476.921 194.848C470.919 197.152 464.174 198.305 456.684 198.305ZM528.341 196V85.3818H544.761V102.09H545.913C547.93 96.6165 551.579 92.1754 556.86 88.7666C562.141 85.3578 568.094 83.6534 574.72 83.6534C575.968 83.6534 577.529 83.6774 579.401 83.7254C581.274 83.7734 582.69 83.8455 583.65 83.9415V101.226C583.074 101.082 581.754 100.865 579.689 100.577C577.673 100.241 575.536 100.073 573.28 100.073C567.902 100.073 563.101 101.202 558.876 103.458C554.699 105.667 551.386 108.739 548.938 112.676C546.537 116.565 545.337 121.006 545.337 125.999V196H528.341ZM646.809 198.305C636.151 198.305 626.956 195.952 619.227 191.247C611.545 186.494 605.615 179.868 601.438 171.37C597.309 162.824 595.245 152.886 595.245 141.555C595.245 130.224 597.309 120.238 601.438 111.596C605.615 102.906 611.425 96.1364 618.866 91.2872C626.356 86.3901 635.094 83.9415 645.081 83.9415C650.842 83.9415 656.531 84.9017 662.149 86.8221C667.766 88.7426 672.879 91.8633 677.488 96.1844C682.097 100.457 685.77 106.123 688.507 113.18C691.244 120.238 692.612 128.928 692.612 139.251V146.452H607.344V131.761H675.328C675.328 125.519 674.08 119.95 671.583 115.053C669.134 110.156 665.63 106.291 661.068 103.458C656.555 100.625 651.226 99.2091 645.081 99.2091C638.311 99.2091 632.454 100.889 627.509 104.25C622.611 107.563 618.842 111.884 616.202 117.213C613.561 122.543 612.241 128.256 612.241 134.353V144.148C612.241 152.502 613.681 159.583 616.562 165.393C619.491 171.154 623.548 175.547 628.733 178.572C633.918 181.549 639.943 183.037 646.809 183.037C651.274 183.037 655.307 182.413 658.908 181.164C662.557 179.868 665.702 177.948 668.342 175.403C670.983 172.811 673.023 169.594 674.464 165.753L690.884 170.362C689.155 175.931 686.25 180.828 682.169 185.053C678.088 189.23 673.047 192.495 667.046 194.848C661.044 197.152 654.299 198.305 646.809 198.305ZM788.179 150.773V85.3818H805.175V196H788.179V177.276H787.026C784.434 182.893 780.401 187.67 774.927 191.607C769.454 195.496 762.54 197.44 754.187 197.44C747.273 197.44 741.127 195.928 735.75 192.903C730.373 189.831 726.148 185.221 723.075 179.076C720.002 172.883 718.466 165.081 718.466 155.67V85.3818H735.462V154.518C735.462 162.584 737.719 169.018 742.232 173.819C746.793 178.62 752.602 181.02 759.66 181.02C763.885 181.02 768.182 179.94 772.551 177.78C776.968 175.619 780.665 172.306 783.641 167.841C786.666 163.376 788.179 157.687 788.179 150.773ZM914.658 110.156L899.391 114.477C898.431 111.932 897.014 109.46 895.142 107.059C893.317 104.61 890.821 102.594 887.652 101.01C884.483 99.4251 880.426 98.6329 875.481 98.6329C868.712 98.6329 863.07 100.193 858.557 103.314C854.092 106.387 851.86 110.3 851.86 115.053C851.86 119.278 853.396 122.615 856.469 125.063C859.541 127.512 864.343 129.552 870.872 131.185L887.292 135.218C897.182 137.618 904.552 141.291 909.401 146.236C914.25 151.133 916.675 157.447 916.675 165.177C916.675 171.514 914.851 177.18 911.202 182.173C907.601 187.166 902.56 191.103 896.078 193.984C889.597 196.864 882.059 198.305 873.465 198.305C862.182 198.305 852.844 195.856 845.45 190.959C838.056 186.062 833.375 178.908 831.407 169.498L847.539 165.465C849.075 171.418 851.98 175.883 856.253 178.86C860.574 181.837 866.215 183.325 873.177 183.325C881.099 183.325 887.388 181.645 892.045 178.284C896.75 174.875 899.103 170.794 899.103 166.041C899.103 162.2 897.758 158.983 895.07 156.391C892.381 153.75 888.252 151.782 882.683 150.485L864.247 146.164C854.116 143.764 846.674 140.043 841.921 135.002C837.216 129.912 834.864 123.551 834.864 115.917C834.864 109.676 836.616 104.154 840.121 99.3531C843.674 94.552 848.499 90.7831 854.596 88.0464C860.742 85.3098 867.703 83.9415 875.481 83.9415C886.428 83.9415 895.022 86.342 901.263 91.1432C907.553 95.9443 912.018 102.282 914.658 110.156Z" fill="white"/>
<path d="M236.6 23.2002H0C0 58.4002 28.4 86.8002 63.4 86.8002H236.6V23.2002Z" fill="#B488F1"/>
<path d="M193 240.3C217.577 240.3 237.5 220.377 237.5 195.8C237.5 171.224 217.577 151.3 193 151.3C168.423 151.3 148.5 171.224 148.5 195.8C148.5 220.377 168.423 240.3 193 240.3Z" fill="#B488F1"/>
<g filter="url(#filter0_d_6869_53118)">
<path d="M236.6 23.2002C236.6 23.2002 60.3999 34.1002 20.3999 239.4H86.1999C86.1999 239.4 100.3 118.8 236.6 86.4002V23.2002Z" fill="#B488F1"/>
</g>
<defs>
<filter id="filter0_d_6869_53118" x="14.3999" y="17.2002" width="228.2" height="228.2" filterUnits="userSpaceOnUse" color-interpolation-filters="sRGB">
<feFlood flood-opacity="0" result="BackgroundImageFix"/>
<feColorMatrix in="SourceAlpha" type="matrix" values="0 0 0 0 0 0 0 0 0 0 0 0 0 0 0 0 0 0 127 0" result="hardAlpha"/>
<feOffset/>
<feGaussianBlur stdDeviation="3"/>
<feColorMatrix type="matrix" values="0 0 0 0 0 0 0 0 0 0 0 0 0 0 0 0 0 0 0.2 0"/>
<feBlend mode="normal" in2="BackgroundImageFix" result="effect1_dropShadow_6869_53118"/>
<feBlend mode="normal" in="SourceGraphic" in2="effect1_dropShadow_6869_53118" result="shape"/>
</filter>
</defs>
</svg>
